<svg xmlns="http://www.w3.org/2000/svg" xmlns:xlink="http://www.w3.org/1999/xlink" contentStyleType="text/css" data-diagram-type="CLASS" height="1176px" preserveAspectRatio="none" style="width:1243px;height:1176px;background:#FFFFFF;" version="1.1" viewBox="0 0 1243 1176" width="1243px" zoomAndPan="magnify"><defs/><g><!--class IObserver--><g class="entity" data-entity="IObserver" data-source-line="1" data-uid="ent0002" id="entity_IObserver"><rect fill="#F1F1F1" height="64.2969" rx="2.5" ry="2.5" style="stroke:#181818;stroke-width:0.5;" width="238.0781" x="127.8" y="345.23"/><ellipse cx="208.4128" cy="361.23" fill="#B4A7E5" rx="11" ry="11" style="stroke:#181818;stroke-width:1;"/><path d="M204.3347,356.9956 L204.3347,354.8394 L211.7253,354.8394 L211.7253,356.9956 L209.2565,356.9956 L209.2565,365.0738 L211.7253,365.0738 L211.7253,367.23 L204.3347,367.23 L204.3347,365.0738 L206.8034,365.0738 L206.8034,356.9956 L204.3347,356.9956 Z " fill="#000000"/><text fill="#000000" font-family="sans-serif" font-size="14" font-style="italic" lengthAdjust="spacing" textLength="68.3525" x="228.9128" y="366.0767">IObserver</text><line style="stroke:#181818;stroke-width:0.5;" x1="128.8" x2="364.8781" y1="377.23" y2="377.23"/><line style="stroke:#181818;stroke-width:0.5;" x1="128.8" x2="364.8781" y1="385.23" y2="385.23"/><ellipse cx="138.8" cy="398.8784" fill="#84BE84" rx="3" ry="3" style="stroke:#038048;stroke-width:1;"/><text fill="#000000" font-family="sans-serif" font-size="14" lengthAdjust="spacing" textLength="212.0781" x="147.8" y="402.2251">void Update(ISubject subject);</text></g><!--class ISubject--><g class="entity" data-entity="ISubject" data-source-line="6" data-uid="ent0003" id="entity_ISubject"><rect fill="#F1F1F1" height="96.8906" rx="2.5" ry="2.5" style="stroke:#181818;stroke-width:0.5;" width="332.5576" x="852.56" y="328.93"/><ellipse cx="986.3564" cy="344.93" fill="#B4A7E5" rx="11" ry="11" style="stroke:#181818;stroke-width:1;"/><path d="M982.2783,340.6956 L982.2783,338.5394 L989.6689,338.5394 L989.6689,340.6956 L987.2001,340.6956 L987.2001,348.7737 L989.6689,348.7737 L989.6689,350.93 L982.2783,350.93 L982.2783,348.7737 L984.747,348.7737 L984.747,340.6956 L982.2783,340.6956 Z " fill="#000000"/><text fill="#000000" font-family="sans-serif" font-size="14" font-style="italic" lengthAdjust="spacing" textLength="56.4648" x="1006.8564" y="349.7767">ISubject</text><line style="stroke:#181818;stroke-width:0.5;" x1="853.56" x2="1184.1176" y1="360.93" y2="360.93"/><line style="stroke:#181818;stroke-width:0.5;" x1="853.56" x2="1184.1176" y1="368.93" y2="368.93"/><ellipse cx="863.56" cy="382.5784" fill="#84BE84" rx="3" ry="3" style="stroke:#038048;stroke-width:1;"/><text fill="#000000" font-family="sans-serif" font-size="14" lengthAdjust="spacing" textLength="275.8643" x="872.56" y="385.9251">void AddObserver(IObserver observer);</text><ellipse cx="863.56" cy="398.8753" fill="#84BE84" rx="3" ry="3" style="stroke:#038048;stroke-width:1;"/><text fill="#000000" font-family="sans-serif" font-size="14" lengthAdjust="spacing" textLength="306.5576" x="872.56" y="402.222">void RemobeObserver(IObserver observer);</text><ellipse cx="863.56" cy="415.1722" fill="#84BE84" rx="3" ry="3" style="stroke:#038048;stroke-width:1;"/><text fill="#000000" font-family="sans-serif" font-size="14" lengthAdjust="spacing" textLength="161.7383" x="872.56" y="418.5189">void CallOberservers();</text></g><!--class InventorySubject--><g class="entity" data-entity="InventorySubject" data-source-line="13" data-uid="ent0004" id="entity_InventorySubject"><rect fill="#F1F1F1" height="64.2969" rx="2.5" ry="2.5" style="stroke:#181818;stroke-width:0.5;" width="210.9668" x="729.36" y="526.56"/><ellipse cx="771.2528" cy="542.56" fill="#ADD1B2" rx="11" ry="11" style="stroke:#181818;stroke-width:1;"/><path d="M774.2215,548.2006 Q773.6434,548.4975 773.0028,548.6381 Q772.3621,548.7944 771.659,548.7944 Q769.159,548.7944 767.8309,547.1538 Q766.5184,545.4975 766.5184,542.3725 Q766.5184,539.2475 767.8309,537.5913 Q769.159,535.935 771.659,535.935 Q772.3621,535.935 773.0028,536.0913 Q773.659,536.2475 774.2215,536.5444 L774.2215,539.2631 Q773.5965,538.685 773.0028,538.4194 Q772.409,538.1381 771.784,538.1381 Q770.4403,538.1381 769.7528,539.2163 Q769.0653,540.2788 769.0653,542.3725 Q769.0653,544.4663 769.7528,545.5444 Q770.4403,546.6069 771.784,546.6069 Q772.409,546.6069 773.0028,546.3413 Q773.5965,546.06 774.2215,545.4819 L774.2215,548.2006 Z " fill="#000000"/><text fill="#000000" font-family="sans-serif" font-size="14" lengthAdjust="spacing" textLength="119.2051" x="791.2289" y="547.4067">InventorySubject</text><line style="stroke:#181818;stroke-width:0.5;" x1="730.36" x2="939.3268" y1="558.56" y2="558.56"/><text fill="#000000" font-family="sans-serif" font-size="14" lengthAdjust="spacing" textLength="198.9668" x="735.36" y="575.5551">List&lt;IObserver&gt; observers;,</text><line style="stroke:#181818;stroke-width:0.5;" x1="730.36" x2="939.3268" y1="582.8569" y2="582.8569"/></g><!--class InventorySlot--><g class="entity" data-entity="InventorySlot" data-source-line="18" data-uid="ent0005" id="entity_InventorySlot"><rect fill="#F1F1F1" height="96.8906" rx="2.5" ry="2.5" style="stroke:#181818;stroke-width:0.5;" width="185.1475" x="326.27" y="510.26"/><ellipse cx="368.0213" cy="526.26" fill="#ADD1B2" rx="11" ry="11" style="stroke:#181818;stroke-width:1;"/><path d="M370.99,531.9006 Q370.4119,532.1975 369.7713,532.3381 Q369.1306,532.4944 368.4275,532.4944 Q365.9275,532.4944 364.5994,530.8538 Q363.2869,529.1975 363.2869,526.0725 Q363.2869,522.9475 364.5994,521.2913 Q365.9275,519.635 368.4275,519.635 Q369.1306,519.635 369.7713,519.7913 Q370.4275,519.9475 370.99,520.2444 L370.99,522.9631 Q370.365,522.385 369.7713,522.1194 Q369.1775,521.8381 368.5525,521.8381 Q367.2088,521.8381 366.5213,522.9163 Q365.8338,523.9788 365.8338,526.0725 Q365.8338,528.1663 366.5213,529.2444 Q367.2088,530.3069 368.5525,530.3069 Q369.1775,530.3069 369.7713,530.0413 Q370.365,529.76 370.99,529.1819 L370.99,531.9006 Z " fill="#000000"/><text fill="#000000" font-family="sans-serif" font-size="14" lengthAdjust="spacing" textLength="93.7002" x="387.966" y="531.1067">InventorySlot</text><line style="stroke:#181818;stroke-width:0.5;" x1="327.27" x2="510.4175" y1="542.26" y2="542.26"/><text fill="#000000" font-family="sans-serif" font-size="14" lengthAdjust="spacing" textLength="126.1299" x="332.27" y="559.2551">GameObject slot;,</text><text fill="#000000" font-family="sans-serif" font-size="14" lengthAdjust="spacing" textLength="77.1162" x="332.27" y="575.552">Item item;,</text><line style="stroke:#181818;stroke-width:0.5;" x1="327.27" x2="510.4175" y1="582.8538" y2="582.8538"/><ellipse cx="337.27" cy="596.5022" fill="#84BE84" rx="3" ry="3" style="stroke:#038048;stroke-width:1;"/><text fill="#000000" font-family="sans-serif" font-size="14" lengthAdjust="spacing" textLength="159.1475" x="346.27" y="599.8489">GameObject GetSlot();</text></g><!--class Item--><g class="entity" data-entity="Item" data-source-line="25" data-uid="ent0006" id="entity_Item"><rect fill="#F1F1F1" height="64.2969" rx="2.5" ry="2.5" style="stroke:#181818;stroke-width:0.5;" width="428.3564" x="204.66" y="667.15"/><ellipse cx="398.6537" cy="683.15" fill="#ADD1B2" rx="11" ry="11" style="stroke:#181818;stroke-width:1;"/><path d="M401.6224,688.7906 Q401.0443,689.0875 400.4037,689.2281 Q399.763,689.3844 399.0599,689.3844 Q396.5599,689.3844 395.2318,687.7438 Q393.9193,686.0875 393.9193,682.9625 Q393.9193,679.8375 395.2318,678.1813 Q396.5599,676.525 399.0599,676.525 Q399.763,676.525 400.4037,676.6813 Q401.0599,676.8375 401.6224,677.1344 L401.6224,679.8531 Q400.9974,679.275 400.4037,679.0094 Q399.8099,678.7281 399.1849,678.7281 Q397.8412,678.7281 397.1537,679.8063 Q396.4662,680.8688 396.4662,682.9625 Q396.4662,685.0563 397.1537,686.1344 Q397.8412,687.1969 399.1849,687.1969 Q399.8099,687.1969 400.4037,686.9313 Q400.9974,686.65 401.6224,686.0719 L401.6224,688.7906 Z " fill="#000000"/><text fill="#000000" font-family="sans-serif" font-size="14" lengthAdjust="spacing" textLength="31.8691" x="419.1537" y="687.9967">Item</text><line style="stroke:#181818;stroke-width:0.5;" x1="205.66" x2="632.0164" y1="699.15" y2="699.15"/><line style="stroke:#181818;stroke-width:0.5;" x1="205.66" x2="632.0164" y1="707.15" y2="707.15"/><ellipse cx="215.66" cy="720.7984" fill="#84BE84" rx="3" ry="3" style="stroke:#038048;stroke-width:1;"/><text fill="#000000" font-family="sans-serif" font-size="14" lengthAdjust="spacing" textLength="402.3564" x="224.66" y="724.1451">Item(string name, string info, IItemBehaviour behaviour);</text></g><!--class IItem--><g class="entity" data-entity="IItem" data-source-line="30" data-uid="ent0007" id="entity_IItem"><rect fill="#F1F1F1" height="113.1875" rx="2.5" ry="2.5" style="stroke:#181818;stroke-width:0.5;" width="212.5254" x="312.58" y="791.45"/><ellipse cx="396.5937" cy="807.45" fill="#B4A7E5" rx="11" ry="11" style="stroke:#181818;stroke-width:1;"/><path d="M392.5155,803.2156 L392.5155,801.0594 L399.9062,801.0594 L399.9062,803.2156 L397.4374,803.2156 L397.4374,811.2938 L399.9062,811.2938 L399.9062,813.45 L392.5155,813.45 L392.5155,811.2938 L394.9843,811.2938 L394.9843,803.2156 L392.5155,803.2156 Z " fill="#000000"/><text fill="#000000" font-family="sans-serif" font-size="14" font-style="italic" lengthAdjust="spacing" textLength="35.998" x="417.0937" y="812.2967">IItem</text><line style="stroke:#181818;stroke-width:0.5;" x1="313.58" x2="524.1054" y1="823.45" y2="823.45"/><ellipse cx="323.58" cy="837.0984" fill="none" rx="3" ry="3" style="stroke:#038048;stroke-width:1;"/><text fill="#000000" font-family="sans-serif" font-size="14" lengthAdjust="spacing" textLength="89.0586" x="332.58" y="840.4451">string name;</text><ellipse cx="323.58" cy="853.3953" fill="none" rx="3" ry="3" style="stroke:#038048;stroke-width:1;"/><text fill="#000000" font-family="sans-serif" font-size="14" lengthAdjust="spacing" textLength="75.6123" x="332.58" y="856.742">string info;</text><ellipse cx="323.58" cy="869.6922" fill="none" rx="3" ry="3" style="stroke:#038048;stroke-width:1;"/><text fill="#000000" font-family="sans-serif" font-size="14" lengthAdjust="spacing" textLength="186.5254" x="332.58" y="873.0389">IItemBehaviour behaviour;</text><ellipse cx="323.58" cy="885.9891" fill="none" rx="3" ry="3" style="stroke:#038048;stroke-width:1;"/><text fill="#000000" font-family="sans-serif" font-size="14" lengthAdjust="spacing" textLength="181.7539" x="332.58" y="889.3357">GameObject gameObject;</text><line style="stroke:#181818;stroke-width:0.5;" x1="313.58" x2="524.1054" y1="896.6375" y2="896.6375"/></g><!--class IItemBehaviour--><g class="entity" data-entity="IItemBehaviour" data-source-line="38" data-uid="ent0008" id="entity_IItemBehaviour"><rect fill="#F1F1F1" height="64.2969" rx="2.5" ry="2.5" style="stroke:#181818;stroke-width:0.5;" width="214.959" x="311.36" y="964.64"/><ellipse cx="361.0709" cy="980.64" fill="#B4A7E5" rx="11" ry="11" style="stroke:#181818;stroke-width:1;"/><path d="M356.9928,976.4056 L356.9928,974.2494 L364.3834,974.2494 L364.3834,976.4056 L361.9147,976.4056 L361.9147,984.4838 L364.3834,984.4838 L364.3834,986.64 L356.9928,986.64 L356.9928,984.4838 L359.4616,984.4838 L359.4616,976.4056 L356.9928,976.4056 Z " fill="#000000"/><text fill="#000000" font-family="sans-serif" font-size="14" font-style="italic" lengthAdjust="spacing" textLength="107.0371" x="381.5709" y="985.4867">IItemBehaviour</text><line style="stroke:#181818;stroke-width:0.5;" x1="312.36" x2="525.319" y1="996.64" y2="996.64"/><line style="stroke:#181818;stroke-width:0.5;" x1="312.36" x2="525.319" y1="1004.64" y2="1004.64"/><ellipse cx="322.36" cy="1018.2884" fill="#84BE84" rx="3" ry="3" style="stroke:#038048;stroke-width:1;"/><text fill="#000000" font-family="sans-serif" font-size="14" lengthAdjust="spacing" textLength="188.959" x="331.36" y="1021.6351">void OnPickUp(IItem item);</text></g><!--class StackAbleBehaviour--><g class="entity" data-entity="StackAbleBehaviour" data-source-line="43" data-uid="ent0009" id="entity_StackAbleBehaviour"><rect fill="#F1F1F1" height="80.5938" rx="2.5" ry="2.5" style="stroke:#181818;stroke-width:0.5;" width="263.4531" x="156.11" y="1088.94"/><ellipse cx="213.2038" cy="1104.94" fill="#ADD1B2" rx="11" ry="11" style="stroke:#181818;stroke-width:1;"/><path d="M216.1725,1110.5806 Q215.5944,1110.8775 214.9538,1111.0181 Q214.3131,1111.1744 213.61,1111.1744 Q211.11,1111.1744 209.7819,1109.5338 Q208.4694,1107.8775 208.4694,1104.7525 Q208.4694,1101.6275 209.7819,1099.9713 Q211.11,1098.315 213.61,1098.315 Q214.3131,1098.315 214.9538,1098.4713 Q215.61,1098.6275 216.1725,1098.9244 L216.1725,1101.6431 Q215.5475,1101.065 214.9538,1100.7994 Q214.36,1100.5181 213.735,1100.5181 Q212.3913,1100.5181 211.7038,1101.5963 Q211.0163,1102.6588 211.0163,1104.7525 Q211.0163,1106.8463 211.7038,1107.9244 Q212.3913,1108.9869 213.735,1108.9869 Q214.36,1108.9869 214.9538,1108.7213 Q215.5475,1108.44 216.1725,1107.8619 L216.1725,1110.5806 Z " fill="#000000"/><text fill="#000000" font-family="sans-serif" font-size="14" lengthAdjust="spacing" textLength="140.7656" x="233.7038" y="1109.7867">StackAbleBehaviour</text><line style="stroke:#181818;stroke-width:0.5;" x1="157.11" x2="418.5631" y1="1120.94" y2="1120.94"/><text fill="#000000" font-family="sans-serif" font-size="14" lengthAdjust="spacing" textLength="99.0869" x="162.11" y="1137.9351">float amount;,</text><line style="stroke:#181818;stroke-width:0.5;" x1="157.11" x2="418.5631" y1="1145.2369" y2="1145.2369"/><ellipse cx="167.11" cy="1158.8853" fill="#84BE84" rx="3" ry="3" style="stroke:#038048;stroke-width:1;"/><text fill="#000000" font-family="sans-serif" font-size="14" lengthAdjust="spacing" textLength="237.4531" x="176.11" y="1162.232">StackAbleBehavior(float amount);</text></g><!--class NonStackableBehavior--><g class="entity" data-entity="NonStackableBehavior" data-source-line="49" data-uid="ent0010" id="entity_NonStackableBehavior"><rect fill="#F1F1F1" height="48" rx="2.5" ry="2.5" style="stroke:#181818;stroke-width:0.5;" width="190.8057" x="454.44" y="1105.23"/><ellipse cx="469.44" cy="1121.23" fill="#ADD1B2" rx="11" ry="11" style="stroke:#181818;stroke-width:1;"/><path d="M472.4088,1126.8706 Q471.8306,1127.1675 471.19,1127.3081 Q470.5494,1127.4644 469.8463,1127.4644 Q467.3463,1127.4644 466.0181,1125.8238 Q464.7056,1124.1675 464.7056,1121.0425 Q464.7056,1117.9175 466.0181,1116.2613 Q467.3463,1114.605 469.8463,1114.605 Q470.5494,1114.605 471.19,1114.7613 Q471.8463,1114.9175 472.4088,1115.2144 L472.4088,1117.9331 Q471.7838,1117.355 471.19,1117.0894 Q470.5963,1116.8081 469.9713,1116.8081 Q468.6275,1116.8081 467.94,1117.8863 Q467.2525,1118.9488 467.2525,1121.0425 Q467.2525,1123.1363 467.94,1124.2144 Q468.6275,1125.2769 469.9713,1125.2769 Q470.5963,1125.2769 471.19,1125.0113 Q471.7838,1124.73 472.4088,1124.1519 L472.4088,1126.8706 Z " fill="#000000"/><text fill="#000000" font-family="sans-serif" font-size="14" lengthAdjust="spacing" textLength="158.8057" x="483.44" y="1126.0767">NonStackableBehavior</text><line style="stroke:#181818;stroke-width:0.5;" x1="455.44" x2="644.2457" y1="1137.23" y2="1137.23"/><line style="stroke:#181818;stroke-width:0.5;" x1="455.44" x2="644.2457" y1="1145.23" y2="1145.23"/></g><!--class Inventory--><g class="entity" data-entity="Inventory" data-source-line="53" data-uid="ent0011" id="entity_Inventory"><rect fill="#F1F1F1" height="145.7813" rx="2.5" ry="2.5" style="stroke:#181818;stroke-width:0.5;" width="345.3066" x="472.19" y="304.48"/><ellipse cx="607.1588" cy="320.48" fill="#ADD1B2" rx="11" ry="11" style="stroke:#181818;stroke-width:1;"/><path d="M610.1275,326.1206 Q609.5494,326.4175 608.9088,326.5581 Q608.2681,326.7144 607.565,326.7144 Q605.065,326.7144 603.7369,325.0738 Q602.4244,323.4175 602.4244,320.2925 Q602.4244,317.1675 603.7369,315.5113 Q605.065,313.855 607.565,313.855 Q608.2681,313.855 608.9088,314.0113 Q609.565,314.1675 610.1275,314.4644 L610.1275,317.1831 Q609.5025,316.605 608.9088,316.3394 Q608.315,316.0581 607.69,316.0581 Q606.3463,316.0581 605.6588,317.1363 Q604.9713,318.1988 604.9713,320.2925 Q604.9713,322.3863 605.6588,323.4644 Q606.3463,324.5269 607.69,324.5269 Q608.315,324.5269 608.9088,324.2613 Q609.5025,323.98 610.1275,323.4019 L610.1275,326.1206 Z " fill="#000000"/><text fill="#000000" font-family="sans-serif" font-size="14" lengthAdjust="spacing" textLength="66.8691" x="627.6588" y="325.3267">Inventory</text><line style="stroke:#181818;stroke-width:0.5;" x1="473.19" x2="816.4966" y1="336.48" y2="336.48"/><text fill="#000000" font-family="sans-serif" font-size="14" lengthAdjust="spacing" textLength="221.8809" x="478.19" y="353.4751">List&lt;InventorySlot&gt; inventory;,</text><text fill="#000000" font-family="sans-serif" font-size="14" lengthAdjust="spacing" textLength="183.5654" x="478.19" y="369.772">InventorySubject subject;,</text><line style="stroke:#181818;stroke-width:0.5;" x1="473.19" x2="816.4966" y1="377.0738" y2="377.0738"/><ellipse cx="483.19" cy="390.7222" fill="#84BE84" rx="3" ry="3" style="stroke:#038048;stroke-width:1;"/><text fill="#000000" font-family="sans-serif" font-size="14" lengthAdjust="spacing" textLength="266.2256" x="492.19" y="394.0689">AddItem(IventorySlot slot, Item item);</text><ellipse cx="483.19" cy="407.0191" fill="#84BE84" rx="3" ry="3" style="stroke:#038048;stroke-width:1;"/><text fill="#000000" font-family="sans-serif" font-size="14" lengthAdjust="spacing" textLength="219.4678" x="492.19" y="410.3657">RemoveItem(IventorySlot slot);</text><ellipse cx="483.19" cy="423.3159" fill="#84BE84" rx="3" ry="3" style="stroke:#038048;stroke-width:1;"/><text fill="#000000" font-family="sans-serif" font-size="14" lengthAdjust="spacing" textLength="319.3066" x="492.19" y="426.6626">ChangeItemSlot(IventorySlot slot, Item item);</text><ellipse cx="483.19" cy="439.6128" fill="#84BE84" rx="3" ry="3" style="stroke:#038048;stroke-width:1;"/><text fill="#000000" font-family="sans-serif" font-size="14" lengthAdjust="spacing" textLength="195.8496" x="492.19" y="442.9595">GetItem(InventorySlot slot);</text></g><!--class ICommand--><g class="entity" data-entity="ICommand" data-source-line="63" data-uid="ent0012" id="entity_ICommand"><rect fill="#F1F1F1" height="64.2969" rx="2.5" ry="2.5" style="stroke:#181818;stroke-width:0.5;" width="132.1348" x="569.77" y="7"/><ellipse cx="595.5929" cy="23" fill="#B4A7E5" rx="11" ry="11" style="stroke:#181818;stroke-width:1;"/><path d="M591.5147,18.7656 L591.5147,16.6094 L598.9054,16.6094 L598.9054,18.7656 L596.4366,18.7656 L596.4366,26.8438 L598.9054,26.8438 L598.9054,29 L591.5147,29 L591.5147,26.8438 L593.9835,26.8438 L593.9835,18.7656 L591.5147,18.7656 Z " fill="#000000"/><text fill="#000000" font-family="sans-serif" font-size="14" font-style="italic" lengthAdjust="spacing" textLength="76.084" x="611.9979" y="27.8467">ICommand</text><line style="stroke:#181818;stroke-width:0.5;" x1="570.77" x2="700.9048" y1="39" y2="39"/><line style="stroke:#181818;stroke-width:0.5;" x1="570.77" x2="700.9048" y1="47" y2="47"/><ellipse cx="580.77" cy="60.6484" fill="#84BE84" rx="3" ry="3" style="stroke:#038048;stroke-width:1;"/><text fill="#000000" font-family="sans-serif" font-size="14" lengthAdjust="spacing" textLength="106.1348" x="589.77" y="63.9951">void Execute();</text></g><!--class DragItemCommand--><g class="entity" data-entity="DragItemCommand" data-source-line="68" data-uid="ent0013" id="entity_DragItemCommand"><rect fill="#F1F1F1" height="80.5938" rx="2.5" ry="2.5" style="stroke:#181818;stroke-width:0.5;" width="169.8262" x="903.93" y="147.59"/><ellipse cx="918.93" cy="163.59" fill="#ADD1B2" rx="11" ry="11" style="stroke:#181818;stroke-width:1;"/><path d="M921.8988,169.2306 Q921.3206,169.5275 920.68,169.6681 Q920.0394,169.8244 919.3363,169.8244 Q916.8363,169.8244 915.5081,168.1837 Q914.1956,166.5275 914.1956,163.4025 Q914.1956,160.2775 915.5081,158.6212 Q916.8363,156.965 919.3363,156.965 Q920.0394,156.965 920.68,157.1212 Q921.3363,157.2775 921.8988,157.5744 L921.8988,160.2931 Q921.2738,159.715 920.68,159.4494 Q920.0863,159.1681 919.4613,159.1681 Q918.1175,159.1681 917.43,160.2462 Q916.7425,161.3087 916.7425,163.4025 Q916.7425,165.4962 917.43,166.5744 Q918.1175,167.6369 919.4613,167.6369 Q920.0863,167.6369 920.68,167.3712 Q921.2738,167.09 921.8988,166.5119 L921.8988,169.2306 Z " fill="#000000"/><text fill="#000000" font-family="sans-serif" font-size="14" lengthAdjust="spacing" textLength="137.8262" x="932.93" y="168.4367">DragItemCommand</text><line style="stroke:#181818;stroke-width:0.5;" x1="904.93" x2="1072.7562" y1="179.59" y2="179.59"/><text fill="#000000" font-family="sans-serif" font-size="14" lengthAdjust="spacing" textLength="126.9639" x="909.93" y="196.5851">Item dragedItem;,</text><text fill="#000000" font-family="sans-serif" font-size="14" lengthAdjust="spacing" textLength="147.875" x="909.93" y="212.882">GameObject mouse;,</text><line style="stroke:#181818;stroke-width:0.5;" x1="904.93" x2="1072.7562" y1="220.1837" y2="220.1837"/></g><!--class MoveItemCommand--><g class="entity" data-entity="MoveItemCommand" data-source-line="74" data-uid="ent0014" id="entity_MoveItemCommand"><rect fill="#F1F1F1" height="113.1875" rx="2.5" ry="2.5" style="stroke:#181818;stroke-width:0.5;" width="179.0361" x="442.32" y="131.3"/><ellipse cx="459.871" cy="147.3" fill="#ADD1B2" rx="11" ry="11" style="stroke:#181818;stroke-width:1;"/><path d="M462.8398,152.9406 Q462.2617,153.2375 461.621,153.3781 Q460.9804,153.5344 460.2773,153.5344 Q457.7773,153.5344 456.4492,151.8937 Q455.1367,150.2375 455.1367,147.1125 Q455.1367,143.9875 456.4492,142.3312 Q457.7773,140.675 460.2773,140.675 Q460.9804,140.675 461.621,140.8312 Q462.2773,140.9875 462.8398,141.2844 L462.8398,144.0031 Q462.2148,143.425 461.621,143.1594 Q461.0273,142.8781 460.4023,142.8781 Q459.0585,142.8781 458.371,143.9562 Q457.6835,145.0187 457.6835,147.1125 Q457.6835,149.2062 458.371,150.2844 Q459.0585,151.3469 460.4023,151.3469 Q461.0273,151.3469 461.621,151.0812 Q462.2148,150.8 462.8398,150.2219 L462.8398,152.9406 Z " fill="#000000"/><text fill="#000000" font-family="sans-serif" font-size="14" lengthAdjust="spacing" textLength="141.3672" x="474.4379" y="152.1467">MoveItemCommand</text><line style="stroke:#181818;stroke-width:0.5;" x1="443.32" x2="620.3561" y1="163.3" y2="163.3"/><text fill="#000000" font-family="sans-serif" font-size="14" lengthAdjust="spacing" textLength="147.1162" x="448.32" y="180.2951">Inventory inventory;,</text><text fill="#000000" font-family="sans-serif" font-size="14" lengthAdjust="spacing" textLength="167.0361" x="448.32" y="196.592">InventorySlot fromSlot;,</text><text fill="#000000" font-family="sans-serif" font-size="14" lengthAdjust="spacing" textLength="148.2031" x="448.32" y="212.8889">InventorySlot toSlot;,</text><text fill="#000000" font-family="sans-serif" font-size="14" lengthAdjust="spacing" textLength="116.457" x="448.32" y="229.1857">Item moveItem;,</text><line style="stroke:#181818;stroke-width:0.5;" x1="443.32" x2="620.3561" y1="236.4875" y2="236.4875"/></g><!--reverse link ISubject to InventorySubject--><g class="link" data-entity-1="ISubject" data-entity-2="InventorySubject" data-source-line="82" data-uid="lnk15" id="link_ISubject_InventorySubject"><path codeLine="82" d="M965.7136,430.1482 C933.1436,461.8982 895.51,498.57 867.06,526.31" fill="none" id="ISubject-backto-InventorySubject" style="stroke:#181818;stroke-width:1;stroke-dasharray:7.0,7.0;"/><polygon fill="#181818" points="970.01,425.96,960.7733,429.3781,966.4297,429.4502,966.3576,435.1066,970.01,425.96" style="stroke:#181818;stroke-width:1;"/></g><!--reverse link IObserver to InventorySlot--><g class="link" data-entity-1="IObserver" data-entity-2="InventorySlot" data-source-line="83" data-uid="lnk16" id="link_IObserver_InventorySlot"><path codeLine="83" d="M280.9526,413.9408 C307.5126,441.6408 342.56,478.18 373.06,509.97" fill="none" id="IObserver-backto-InventorySlot" style="stroke:#181818;stroke-width:1;stroke-dasharray:7.0,7.0;"/><polygon fill="#181818" points="276.8,409.61,280.1417,418.8746,280.2605,413.219,285.9161,413.3378,276.8,409.61" style="stroke:#181818;stroke-width:1;"/></g><!--reverse link IItemBehaviour to StackAbleBehaviour--><g class="link" data-entity-1="IItemBehaviour" data-entity-2="StackAbleBehaviour" data-source-line="84" data-uid="lnk17" id="link_IItemBehaviour_StackAbleBehaviour"><path codeLine="84" d="M382.879,1033.5943 C365.009,1051.3943 346.77,1069.56 327.71,1088.53" fill="none" id="IItemBehaviour-backto-StackAbleBehaviour" style="stroke:#181818;stroke-width:1;stroke-dasharray:7.0,7.0;"/><polygon fill="#181818" points="387.13,1029.36,377.9307,1032.8775,383.5875,1032.8886,383.5764,1038.5454,387.13,1029.36" style="stroke:#181818;stroke-width:1;"/></g><!--reverse link IItemBehaviour to NonStackableBehavior--><g class="link" data-entity-1="IItemBehaviour" data-entity-2="NonStackableBehavior" data-source-line="85" data-uid="lnk18" id="link_IItemBehaviour_NonStackableBehavior"><path codeLine="85" d="M454.8008,1033.5945 C478.2708,1056.9745 505.47,1084.05 526.63,1105.12" fill="none" id="IItemBehaviour-backto-NonStackableBehavior" style="stroke:#181818;stroke-width:1;stroke-dasharray:7.0,7.0;"/><polygon fill="#181818" points="450.55,1029.36,454.1032,1038.5456,454.0923,1032.8887,459.7492,1032.8779,450.55,1029.36" style="stroke:#181818;stroke-width:1;"/></g><!--link IItem to IItemBehaviour--><g class="link" data-entity-1="IItem" data-entity-2="IItemBehaviour" data-source-line="86" data-uid="lnk19" id="link_IItem_IItemBehaviour"><path codeLine="86" d="M418.84,904.94 C418.84,925.03 418.84,934.97 418.84,952.26" fill="none" id="IItem-to-IItemBehaviour" style="stroke:#181818;stroke-width:1;"/><polygon fill="#181818" points="418.84,964.26,422.84,958.26,418.84,952.26,414.84,958.26,418.84,964.26" style="stroke:#181818;stroke-width:1;"/></g><!--link Item to IItem--><g class="link" data-entity-1="Item" data-entity-2="IItem" data-source-line="87" data-uid="lnk20" id="link_Item_IItem"><path codeLine="87" d="M418.84,731.78 C418.84,749.05 418.84,764.96 418.84,785.04" fill="none" id="Item-to-IItem" style="stroke:#181818;stroke-width:1;stroke-dasharray:7.0,7.0;"/><polygon fill="#181818" points="418.84,791.04,422.84,782.04,418.84,786.04,414.84,782.04,418.84,791.04" style="stroke:#181818;stroke-width:1;"/></g><!--link Inventory to InventorySubject--><g class="link" data-entity-1="Inventory" data-entity-2="InventorySubject" data-source-line="88" data-uid="lnk21" id="link_Inventory_InventorySubject"><path codeLine="88" d="M721.3,450.54 C749.14,476.82 770.4625,496.9541 792.6525,517.8941" fill="none" id="Inventory-to-InventorySubject" style="stroke:#181818;stroke-width:1;"/><polygon fill="#181818" points="801.38,526.13,799.7615,519.1029,792.6525,517.8941,794.2709,524.9212,801.38,526.13" style="stroke:#181818;stroke-width:1;"/></g><!--link Inventory to InventorySlot--><g class="link" data-entity-1="Inventory" data-entity-2="InventorySlot" data-source-line="89" data-uid="lnk22" id="link_Inventory_InventorySlot"><path codeLine="89" d="M553.89,450.54 C528.75,470.49 511.4892,484.1897 488.5592,502.3897" fill="none" id="Inventory-to-InventorySlot" style="stroke:#181818;stroke-width:1;"/><polygon fill="#181818" points="479.16,509.85,486.3463,509.2529,488.5592,502.3897,481.3728,502.9868,479.16,509.85" style="stroke:#181818;stroke-width:1;"/></g><!--link InventorySlot to Item--><g class="link" data-entity-1="InventorySlot" data-entity-2="Item" data-source-line="90" data-uid="lnk23" id="link_InventorySlot_Item"><path codeLine="90" d="M418.84,607.41 C418.84,627.14 418.84,637.47 418.84,655.05" fill="none" id="InventorySlot-to-Item" style="stroke:#181818;stroke-width:1;"/><polygon fill="#181818" points="418.84,667.05,422.84,661.05,418.84,655.05,414.84,661.05,418.84,667.05" style="stroke:#181818;stroke-width:1;"/></g><!--link MoveItemCommand to Inventory--><g class="link" data-entity-1="MoveItemCommand" data-entity-2="Inventory" data-source-line="91" data-uid="lnk24" id="link_MoveItemCommand_Inventory"><path codeLine="91" d="M565.59,244.89 C576.78,263.45 583.1976,274.0912 595.0176,293.7112" fill="none" id="MoveItemCommand-to-Inventory" style="stroke:#181818;stroke-width:1;"/><polygon fill="#181818" points="601.21,303.99,601.5401,296.7865,595.0176,293.7112,594.6875,300.9147,601.21,303.99" style="stroke:#181818;stroke-width:1;"/></g><!--link MoveItemCommand to InventorySlot--><g class="link" data-entity-1="MoveItemCommand" data-entity-2="InventorySlot" data-source-line="92" data-uid="lnk25" id="link_MoveItemCommand_InventorySlot"><path codeLine="92" d="M487.26,244.91 C474.91,263 462.75,283.76 454.84,304.48 C428.81,372.73 421.8179,445.8387 419.8279,497.9487" fill="none" id="MoveItemCommand-to-InventorySlot" style="stroke:#181818;stroke-width:1;"/><polygon fill="#181818" points="419.37,509.94,423.5961,504.097,419.8279,497.9487,415.6019,503.7917,419.37,509.94" style="stroke:#181818;stroke-width:1;"/></g><!--link MoveItemCommand to Item--><g class="link" data-entity-1="MoveItemCommand" data-entity-2="Item" data-source-line="93" data-uid="lnk26" id="link_MoveItemCommand_Item"><path codeLine="93" d="M442.02,200.7 C330.47,217.42 149.93,251.94 109.84,304.48 C6,440.6 234.5546,594.4627 350.2146,660.9027" fill="none" id="MoveItemCommand-to-Item" style="stroke:#181818;stroke-width:1;"/><polygon fill="#181818" points="360.62,666.88,357.4097,660.4229,350.2146,660.9027,353.4249,667.3598,360.62,666.88" style="stroke:#181818;stroke-width:1;"/></g><!--link DragItemCommand to Item--><g class="link" data-entity-1="DragItemCommand" data-entity-2="Item" data-source-line="94" data-uid="lnk27" id="link_DragItemCommand_Item"><path codeLine="94" d="M1073.99,211.47 C1120.82,228.71 1174.94,257.7 1202.84,304.48 C1236.03,360.13 1233.94,393.42 1202.84,450.26 C1140.78,563.7 1078.46,560.57 957.84,607.15 C854.92,646.9 746.2368,667.8575 645.2368,680.5175" fill="none" id="DragItemCommand-to-Item" style="stroke:#181818;stroke-width:1;"/><polygon fill="#181818" points="633.33,682.01,639.7809,685.2327,645.2368,680.5175,638.7859,677.2948,633.33,682.01" style="stroke:#181818;stroke-width:1;"/></g><!--link ICommand to MoveItemCommand--><g class="link" data-entity-1="ICommand" data-entity-2="MoveItemCommand" data-source-line="95" data-uid="lnk28" id="link_ICommand_MoveItemCommand"><path codeLine="95" d="M613.53,71.63 C601.29,88.89 589.2303,105.9154 575.0003,125.9854" fill="none" id="ICommand-to-MoveItemCommand" style="stroke:#181818;stroke-width:1;stroke-dasharray:7.0,7.0;"/><polygon fill="#181818" points="571.53,130.88,579.9985,125.8517,574.4219,126.8012,573.4725,121.2246,571.53,130.88" style="stroke:#181818;stroke-width:1;"/></g><!--link ICommand to DragItemCommand--><g class="link" data-entity-1="ICommand" data-entity-2="DragItemCommand" data-source-line="96" data-uid="lnk29" id="link_ICommand_DragItemCommand"><path codeLine="96" d="M702.24,67.75 C759.26,91.45 836.2597,123.4668 898.1297,149.1868" fill="none" id="ICommand-to-DragItemCommand" style="stroke:#181818;stroke-width:1;stroke-dasharray:7.0,7.0;"/><polygon fill="#181818" points="903.67,151.49,896.8949,144.3417,899.053,149.5707,893.824,151.7288,903.67,151.49" style="stroke:#181818;stroke-width:1;"/></g><!--SRC=[ZLHRJiCm4FpFAVmPwEC2GPMWe2eIK4J50PnasvecDhBT28IuE_OciPr74J-jdPsPxExiXd4DSazp8EasKo1haD5tD2ErO0Lv-oYeXZZTdRDto3LHpVzL4lr44VFCDkw9jqNHgSLEbuZsOFWjxXKgaS6_e6jQbjiCPFDSnKqIUKcL8YclWMiXltmYZqpf6wUtSe8gcK_nIc596rgPP9fIpHC3JJLKX9aVSvwH8Bu1RKdzD0mEUs0FiTAIyGFXXZCdxONnlPYJrCRlu4Xh9iwIPDrfr5Sd66Wb_chLxFMINj9F-U2EK-znVE_Ybh-m_FJs4QUk3M6vEqtpqsrMGaZTbu9gGYjnvXfxDaJ9E8HS9SGBFWkEQ1gWZUJOBkTlwD_AzAEzMkC68z7DBkPanXCjIWCwEZudOQKpdCyQfh48M1yfFo00f-5lGMBz0Dt8yGczlYjhKLMK5zwFXq_8psOVGnFk9JrOGG_65nRcCM2Hfk1W1apJ5OGhyDJM5_2xp2xqq-Qxbm8B7WMqs0MBqpMlUQ7xZDmib-ELzRlV3zlD70ou1KmCtmHgSgAQQLuiheUBqoIzNAxQpVETGF0eumjXpBZN5OnRnK6t-yI_eoWxYR32Wp7mWMwAiAoXsRtWGE8N]--></g></svg>